{"title":"Hatchet II 2010 XVID AC3 DVDRIP DragonTrG","uid":6145203,"size":1615887221,"categoryP":"video","categoryS":"movies","magnet":"?xt=urn:btih:b57d729ffa0bdb2bf7fadad16f0ad37ec2adb71b&amp;dn=Hatchet+II+2010+XVID+AC3+DVDRIP+DragonTrG&amp;tr=udp%3A%2F%2Ftracker.openbittorrent.com%3A80&amp;tr=udp%3A%2F%2Fopen.demonii.com%3A1337&amp;tr=udp%3A%2F%2Ftracker.coppersurfer.tk%3A6969&amp;tr=udp%3A%2F%2Fexodus.desync.com%3A6969","seeders":0,"leechers":0,"uploader":"SAFCukO09","files":3,"time":1296606035,"description":"Format : AVI\nFormat/Info : Audio Video Interleave\nFormat profile : OpenDML\nFile size : 1.50 GiB\nDuration : 1h 21mn\nOverall bit rate : 2 638 Kbps\n\n\nVideo\nID : 0\nFormat : MPEG-4 Visual\nFormat profile : Advanced Simple@L5\nFormat settings, BVOP : Yes\nFormat settings, QPel : No\nFormat settings, GMC : No warppoints\nFormat settings, Matrix : Custom\nCodec ID : XVID\nCodec ID/Hint : XviD\nDuration : 1h 21mn\nBit rate : 2 185 Kbps\nWidth : 608 pixels\nHeight : 336 pixels\nDisplay aspect ratio : 16:9\nFrame rate : 23.976 fps\nColor space : YUV\nChroma subsampling : 4:2:0\nBit depth : 8 bits\nScan type : Progressive\nBits/(Pixel*Frame) : 0.446\nStream size : 1.25 GiB (83%)\nWriting library : XviD 1.2.1 (UTC 2008-12-04)\n\nAudio\nID : 1\nFormat : AC-3\nFormat/Info : Audio Coding 3\nMode extension : CM (complete main)\nCodec ID : 2000\nDuration : 1h 21mn\nBit rate mode : Constant\nBit rate : 448 Kbps\nChannel(s) : 6 channels\nChannel positions : Front: L C R, Side: L R, LFE\nSampling rate : 48.0 KHz\nBit depth : 16 bits\nStream size : 262 MiB (17%)\nAlignment : Split accross interleaves\nInterleave, duration : 500 ms (11.99 video frames)\nInterleave, preload duration : 500 ms\n &lt;a href=&quot;\nhttp://www.imdb.com/title/tt1270835/&quot; rel=&quot;nofollow&quot; target=&quot;_NEW&quot;&gt;\nhttp://www.imdb.com/title/tt1270835/&lt;/a&gt;\n\nUsers: 5.7/10 (824 votes) 12 reviews | Critics: 47 reviews Metascore: 49/100 (based on 11 reviews from Metacritic.com)\n\nDirector:\nAdam Green\nWriter:\nAdam Green\nStars:\nDanielle Harris, Kane Hodder and Tony Todd\n\n\nMarybeth escapes the clutches of the deformed, swamp-dwelling iconic killer Victor Crowley. After learning the truth about her family's connection to the hatchet-wielding madman, Marybeth returns to the Louisiana swamps along with an army of hunters to recover the bodies of her family and exact the bloodiest revenge against the bayou butcher.\n\n\n\n","torrent":{"xt":"urn:btih:b57d729ffa0bdb2bf7fadad16f0ad37ec2adb71b","amp;dn":"Hatchet+II+2010+XVID+AC3+DVDRIP+DragonTrG","amp;tr":["udp%3A%2F%2Ftracker.openbittorrent.com%3A80","udp%3A%2F%2Fopen.demonii.com%3A1337","udp%3A%2F%2Ftracker.coppersurfer.tk%3A6969","udp%3A%2F%2Fexodus.desync.com%3A6969"],"infoHash":"b57d729ffa0bdb2bf7fadad16f0ad37ec2adb71b","infoHashBuffer":{"type":"Buffer","data":[181,125,114,159,250,11,219,43,247,250,218,209,111,10,211,126,194,173,183,27]},"announce":[],"urlList":[]}}